<svg xmlns="http://www.w3.org/2000/svg" xmlns:xlink="http://www.w3.org/1999/xlink" viewBox="0 0 102.9 110.5">
  <defs>
    <style>
      .cls-1 {
        fill: url(#Naamloos_verloop_56);
      }
    </style>
    <linearGradient id="Naamloos_verloop_56" data-name="Naamloos verloop 56" x1="39.99" y1="95.23" x2="39.99" y2="15.25" gradientUnits="userSpaceOnUse">
      <stop offset="0"/>
      <stop offset="0.25" stop-color="#000203"/>
      <stop offset="0.4" stop-color="#02070b"/>
      <stop offset="0.53" stop-color="#040f19"/>
      <stop offset="0.64" stop-color="#071c2e"/>
      <stop offset="0.74" stop-color="#0b2c48"/>
      <stop offset="0.83" stop-color="#104068"/>
      <stop offset="0.92" stop-color="#16578e"/>
      <stop offset="1" stop-color="#1d71b8"/>
    </linearGradient>
  </defs>
  <g id="Laag_2" data-name="Laag 2">
    <g id="Laag_1-2" data-name="Laag 1">
      <path class="cls-1" d="M31.8,46.7l-.4,1.6a2.2,2.2,0,0,1-1.6,2,8.5,8.5,0,0,1-1.7.6,1.5,1.5,0,0,0-1.2,1.3,1.3,1.3,0,0,1-.1.6l-.8-.4L25.3,54c-.1.3-.1.5-.5.5a2.7,2.7,0,0,0-2.4,1.4c-1.2,1.6-1.5,3.6-2,5.5a12.3,12.3,0,0,0-.2,1.3,4.3,4.3,0,0,1-1.3-2.8c0-1.8,0-3.6.1-5.4v-.3l-.6-2.3H19c-.6-2.3.3-4.3.8-6.4s2.1-7.1,3.1-10.7a19.1,19.1,0,0,0,.8-5.4l-2,1.4a6.7,6.7,0,0,1-2.1.9,2.6,2.6,0,0,1-2.8-1.5c-1-1.7-1.8-3.5-2.8-5.3a97,97,0,0,0-8.1-12L0,5c4.9,2.3,9.5,4.6,13.1,8.8A98.8,98.8,0,0,0,9,1.1c3.3,3,6.3,6,7.7,10.5.5-1.6-.3-7.7-1.2-11.6.8,1,1.7,1.9,2.4,2.9A35.5,35.5,0,0,1,20.2,6a22.7,22.7,0,0,1,1.9,3.4c.5,1.1.9,2.3,1.4,3.6l1.2-4.9L26.3,15a9.8,9.8,0,0,1,2.2-4.7l.7,4.7h.2a7.5,7.5,0,0,1,5-3.3c-1.3,4-1.4,4.6-.8,5.6l4.2-2.5a20.6,20.6,0,0,1,8.8-2.7,51.3,51.3,0,0,1,9.6.1,16.7,16.7,0,0,0,4.9-.8,23.5,23.5,0,0,0,3.5-1.1,14.8,14.8,0,0,1-3.2,3.9,21.4,21.4,0,0,0,11.8.5,19.7,19.7,0,0,1-8.6,4.7c2.4.8,11.1.1,15.4-1.1-1.6,2-3.1,4-5.3,5.2s-4.5,1.9-6.8,2.9a2.7,2.7,0,0,0,1.6,2L74.9,31l.7.2-2.2.6a7.6,7.6,0,0,0-2.2,1.1,1.8,1.8,0,0,0-.3,3.2c1.1,1,2.4,1.8,3.6,2.7a22.5,22.5,0,0,0,2.2,1.1l-1.6.4a1.8,1.8,0,0,0-1,.4,2.1,2.1,0,0,0-.9,3.4,11.4,11.4,0,0,0,4.4,3.4l1.4.9a25.1,25.1,0,0,1-2.7.4,9.2,9.2,0,0,1-6-1.7,28.4,28.4,0,0,1-5.9-5.6,35.2,35.2,0,0,0-6.1-6.1,24.2,24.2,0,0,0-3.6-1.8h-.6l-1.5,1c.5.5.3,1.2.1,1.8s.1,1.4.9,1.4a3.7,3.7,0,0,1,2.5,1.5,15.8,15.8,0,0,1,3.5,7.5l-1.1-.6a4.5,4.5,0,0,0-5.6,1.9,6.7,6.7,0,0,0-.3,4.8,59.5,59.5,0,0,0,2.2,5.9c.6,1.4,1.4,2.7,2.2,4.2L53.8,60h-.1A18,18,0,0,1,55.9,68c-1.1-1.9-2-3.9-3.8-5.2a23.8,23.8,0,0,1,2.4,10.9l-4-3.7-.3.2c2.5,3.8,3.2,8.1,3.5,12.7-1.3-1.8-2-3.9-4-5.1,1.4,4.5.9,8.9.3,13.2-2.1-6.6-2.7-8-3.7-8.7.1,7.8-1.7,15.4-4.2,22.9-.2-5.7.2-11.3-1.3-16.9-2.1,8.6-5.5,16.3-13.1,21.8a57.1,57.1,0,0,0,5.1-16.8c-1.7,3.1-3.4,6.2-5.2,9.2a31.1,31.1,0,0,1-7.4,8l2-5.2c1.4-4.2,3-8.3,4.1-12.6S28,84.3,28.7,80a43.5,43.5,0,0,0,.4-6.3,26.3,26.3,0,0,1,2.4-10.3,65.8,65.8,0,0,0,2.9-7.8,8.8,8.8,0,0,0-1.3-7.5A8.3,8.3,0,0,0,31.8,46.7Z"/>
      <path d="M92.6,54.6c0,1.5-.1,3,0,4.4s.3.5.5.7l.3.5c-.2.1-.3.3-.5.3H91.3l-.4-.2c0-.2.1-.5.2-.5a.8.8,0,0,0,.6-.9c0-1.6,0-3.1-.1-4.7s-.3-.7-.4-1l-.3-.5.5-.2a2.3,2.3,0,0,1,2.2,1,33.9,33.9,0,0,0,3.5,4.2V54.1c0-.4,0-.8-.6-1s-.2-.2-.3-.4l.5-.2h2.1c0,.2,0,.5-.1.5s-.7.8-.7,1.4v5.2a2.9,2.9,0,0,1-.2.9,2,2,0,0,1-.7-.6c-1.5-1.8-2.9-3.6-4.3-5.5Z"/>
      <path d="M96.4,63.4v4.3c0,.3.4.6.6.9l.3.4-.4.3H95.2c-.2,0-.3-.2-.5-.3s.2-.4.3-.4.6-.5.6-.9,0-3.2-.1-4.8-.3-.6-.5-.9-.1-.3-.2-.5h.5a2.2,2.2,0,0,1,2.2,1l3.5,4.3V62.5c0-.2-.4-.3-.6-.5s-.2-.3-.2-.5l.3-.2h2.4c-.2.3-.3.6-.5.7a.9.9,0,0,0-.5.9v5.8a1.5,1.5,0,0,1-.3.7,1,1,0,0,1-.5-.4l-4.2-5.3-.3-.4Z"/>
      <path d="M59.9,69.3c.1-.3.2-.6.3-.6s.5-.6.5-1V63c0-.4,0-.8-.6-.9s-.2-.2-.3-.4l.4-.3c1.3,0,2.6-.1,3.9,0a3.4,3.4,0,0,1,3.1,3.3c.2,3.1-1.6,4.9-4.7,4.6Zm1.9-4.1h0a19.2,19.2,0,0,1,0,2.4c0,.6.3.8.9.9a2.6,2.6,0,0,0,3.1-2.6c.3-3-1.1-3.9-3.4-3.8a.5.5,0,0,0-.6.6A20.8,20.8,0,0,1,61.8,65.2Z"/>
      <path d="M63.6,56.8A5.4,5.4,0,0,0,65.9,60c.1,0,.2.2.3.4l-.6.2a3,3,0,0,1-2-1.3c-.4-.5-.7-1.2-1.1-1.8l-.4-.5h-.2a17.6,17.6,0,0,0,0,2.3c0,.1.3.2.5.3l.3.5-.5.3H60.6l-.6-.2.3-.5c.1-.2.4-.4.4-.7v-5a4.7,4.7,0,0,0-.6-.9c-.1-.1-.2-.2-.2-.3a.3.3,0,0,1,.3-.3,28,28,0,0,1,2.9,0,2,2,0,0,1,2,1.4A2.4,2.4,0,0,1,64,56.6Zm-1.8-.4,1.2-.3a1.5,1.5,0,0,0,.8-1.9,1.2,1.2,0,0,0-1.4-.9.6.6,0,0,0-.5.5A20.9,20.9,0,0,0,61.8,56.4Z"/>
      <path d="M92.2,65.3h1c.2,0,.3.2.5.3s-.2.4-.3.4-.6.5-.6.9v.2c0,1.6-.2,1.9-1.7,2.2A3.9,3.9,0,0,1,86.8,68a4.2,4.2,0,0,1-.2-4.8,3.6,3.6,0,0,1,3.9-2h.8c1.3.3,1.5.5,1.4,1.9s-.2.4-.3.6-.5-.3-.5-.5a2.2,2.2,0,0,0-3.2-1,2.4,2.4,0,0,0-1.2,2.1,4.1,4.1,0,0,0,.6,3.2,2.4,2.4,0,0,0,2.6.9c.4-.1,1-.2,1-.8s.3-1.4-.6-1.7-.2-.3-.3-.5l.5-.2Z"/>
      <path d="M73.7,61.4a7.6,7.6,0,0,0-.1,1.5l-.3.3H73c-.4-1.3-1.5-.8-2.4-.9v2.4h.8c.4.1.7,0,.7-.5l.4-.3a.8.8,0,0,1,.2.4,10.8,10.8,0,0,1,0,1.8c0,.2-.2.3-.3.5l-.3-.3c-.1-.9-.8-.7-1.5-.7V68l.3.4a2.4,2.4,0,0,0,2.5-.8l.4-.3c.1.2.2.3.2.4s-.1,1.6-1.6,1.6H69.3l-.6-.2.3-.5c.1-.2.3-.3.3-.5a48.6,48.6,0,0,0,0-5.4c0-.2-.3-.5-.5-.7s-.2-.3-.1-.4a.5.5,0,0,1,.3-.3h4.7Z"/>
      <path d="M89.2,52.5a6.6,6.6,0,0,1-.1,1.5c0,.2-.1.3-.3.4l-.3-.2c-.8-.9-.9-.9-2.4-.8v2.5c.6-.2,1.4.3,1.6-.7s.3-.2.4-.2.2.2.2.4-.1,1.3-.1,1.9-.1.3-.2.3-.3-.1-.3-.1-.9-.7-1.6-.8v2.4a1.3,1.3,0,0,0,.3.5,2.1,2.1,0,0,0,2.5-.8l.4-.3a1.4,1.4,0,0,1,.2.6c-.2,1.5-.2,1.5-1.8,1.4a28,28,0,0,0-2.9,0l-.6-.2.4-.5c.1-.2.3-.4.3-.5V54c0-.3-.3-.5-.5-.8s-.2-.3-.2-.4a.4.4,0,0,1,.4-.3Z"/>
      <path d="M69.1,57.8a3.6,3.6,0,0,1-.4.9c-.2.5-.2.9.3,1.1s.2.3.3.5l-.5.2H67.2c-.2,0-.4,0-.4-.1a.7.7,0,0,1,.1-.5A16.3,16.3,0,0,0,68,58.2c.7-1.7,1.2-3.5,1.9-5.2l.5-.6.5.5,2.3,6,.7.9c.2.2.2.4.3.6H72l-.6-.2.3-.5c.4-.2.3-.5.2-.8s-.4-1.2-1.8-1.2Zm.3-.8h1.7l-.9-2.4Z"/>
      <path d="M79.3,58.5l1.8-4.6c0-.2-.3-.4-.4-.7l-.3-.5.5-.2h1.6c.2,0,.4.1.4.2a.4.4,0,0,1-.1.5,6,6,0,0,0-.9,1.3c-.8,1.8-1.5,3.6-2.3,5.5l-.6.7c-.1-.3-.3-.5-.4-.8l-2.6-6-.6-.7-.3-.4.4-.3h2.1l.4.2c-.1.2-.1.4-.2.5s-.5.5-.3,1S78.7,56.9,79.3,58.5Z"/>
      <path d="M77.5,69.4c-1.4,0-1.8-.2-2.1-1.5a1.9,1.9,0,0,1,.2-.7l.6.3c.4.6.8,1.1,1.5,1.1s1.1-.1,1.3-.6a1.2,1.2,0,0,0-.5-1.5l-2-1.4a1.9,1.9,0,0,1-1-1.6A2.1,2.1,0,0,1,78,61.2h.6a1.5,1.5,0,0,1,1.3,1.9l-.3.4a1,1,0,0,1-.5-.4c-.3-.5-.5-.9-1.2-1s-1-.1-1.2.4a1.1,1.1,0,0,0,.4,1.4l2,1.3a2.3,2.3,0,0,1,1.1,1.7C80.3,68.5,79.3,69.4,77.5,69.4Z"/>
      <path d="M83.2,69.3h-1c-.2,0-.3-.2-.5-.3s.2-.4.3-.4.6-.5.6-.9V62.8c0-.4,0-.7-.5-.8s-.3-.3-.2-.5.2-.2.4-.2h1.9l.5.2a1,1,0,0,1-.4.5c-.4.2-.5.5-.5,1v4.6c0,.4,0,.9.6,1s.2.3.2.4l-.4.3Z"/>
    </g>
  </g>
</svg>
